<svg width="7" height="15" viewBox="0 0 7 15" fill="none" xmlns="http://www.w3.org/2000/svg">
<path d="M1.59715 3.07995C1.59715 3.4356 1.59715 5.02943 1.59715 5.02943H0.167969V7.4136H1.59715V14.5002H4.53125V7.4136H6.50049C6.50049 7.4136 6.6849 6.27091 6.77381 5.01955C6.51695 5.01955 4.54113 5.01955 4.54113 5.01955C4.54113 5.01955 4.54113 3.63318 4.54113 3.3895C4.54113 3.14581 4.86055 2.81651 5.17669 2.81651C5.49282 2.81651 6.15801 2.81651 6.7771 2.81651C6.7771 2.4905 6.7771 1.37087 6.7771 0.333557C5.95384 0.333557 5.01533 0.333557 4.6037 0.333557C1.5247 0.33685 1.59715 2.72431 1.59715 3.07995Z" fill="#F6F6F5"/>
</svg>
