<svg width="11" height="15" viewBox="0 0 11 15" fill="none" xmlns="http://www.w3.org/2000/svg">
<path d="M5.78372 0.333604C1.93814 0.333604 -0.000976562 3.10544 -0.000976562 5.41683C-0.000976562 6.81636 0.52613 8.06152 1.65658 8.52558C1.84189 8.60172 2.00802 8.52794 2.06175 8.32188C2.09914 8.17908 2.18766 7.81879 2.22713 7.66888C2.28131 7.46477 2.2603 7.39317 2.11073 7.21531C1.78477 6.82875 1.57644 6.32835 1.57644 5.61957C1.57644 3.56314 3.1069 1.72228 5.56164 1.72228C7.73522 1.72228 8.92945 3.05747 8.92945 4.84064C8.92945 7.18687 7.89659 9.16709 6.36333 9.16709C5.51648 9.16709 4.88267 8.46306 5.0858 7.59966C5.32916 6.56877 5.80044 5.45631 5.80044 4.71218C5.80044 4.04615 5.4448 3.49059 4.70874 3.49059C3.84312 3.49059 3.14774 4.39086 3.14774 5.5968C3.14774 6.36486 3.40594 6.88439 3.40594 6.88439C3.40594 6.88439 2.52014 10.6577 2.36482 11.3185C2.05552 12.6345 2.31827 14.2478 2.34061 14.4107C2.35361 14.5073 2.47705 14.5302 2.53287 14.4572C2.61273 14.3524 3.64375 13.0729 3.99424 11.7944C4.09342 11.4324 4.56366 9.55772 4.56366 9.55772C4.84483 10.097 5.66674 10.572 6.54077 10.572C9.14278 10.572 10.9081 8.18724 10.9081 4.99519C10.9081 2.58144 8.8745 0.333557 5.78372 0.333557V0.333604Z" fill="#F6F6F5"/>
</svg>
