<svg width="15" height="13" viewBox="0 0 15 13" fill="none" xmlns="http://www.w3.org/2000/svg">
<path d="M0.520573 10.9405C2.07708 11.0805 3.47962 10.6885 4.75619 9.73113C3.42084 9.61355 2.5278 8.94727 2.02949 7.69871C2.46621 7.7519 2.87494 7.76589 3.30886 7.64831C1.86992 7.2004 1.10286 6.25977 0.999284 4.74246C1.4304 4.94402 1.83633 5.08959 2.31504 5.09519C1.4612 4.45411 1.02448 3.62266 1.04128 2.57566C1.04967 2.09415 1.17845 1.64063 1.4332 1.21231C3.01491 3.06277 4.99974 4.08738 7.44369 4.25815C7.42969 4.15177 7.42129 4.06778 7.4101 3.981C7.20853 2.43009 8.21635 1.01915 9.75606 0.725204C10.7219 0.540438 11.5757 0.795191 12.298 1.46147C12.41 1.56225 12.5052 1.58464 12.6451 1.54825C13.2078 1.40548 13.7425 1.19832 14.2604 0.918368C14.0617 1.57345 13.6529 2.06615 13.0986 2.48048C13.2246 2.45808 13.3534 2.44128 13.4794 2.41609C13.6109 2.38809 13.7425 2.3573 13.8741 2.32091C14.0001 2.28731 14.1233 2.24812 14.2464 2.20613C14.3724 2.16414 14.4984 2.11654 14.6468 2.09135C14.574 2.19213 14.504 2.29851 14.4256 2.39649C14.1009 2.80802 13.7257 3.16915 13.3142 3.49109C13.2722 3.52468 13.2358 3.59747 13.2386 3.64786C13.261 4.64167 13.121 5.61029 12.7991 6.55092C12.1664 8.40417 11.0634 9.90469 9.40893 10.9769C8.59148 11.506 7.69844 11.8531 6.74382 12.0547C5.79759 12.2535 4.84577 12.2898 3.89115 12.1779C2.93373 12.0659 2.02389 11.7831 1.16725 11.3408C0.940495 11.226 0.722136 11.0973 0.500977 10.9741C0.509375 10.9629 0.514974 10.9517 0.520573 10.9405Z" fill="#F6F6F5"/>
</svg>
