<svg width="15" height="11" viewBox="0 0 15 11" fill="none" xmlns="http://www.w3.org/2000/svg">
<path d="M7.67444 10.4558C6.08256 10.4056 4.56875 10.3666 3.05494 10.3081C2.72875 10.2941 2.397 10.2439 2.07918 10.1687C1.48258 10.0293 1.06997 9.66964 0.858093 9.0814C0.688033 8.60746 0.626699 8.11959 0.582093 7.62334C0.484518 6.45801 0.484518 5.29268 0.531912 4.12735C0.559791 3.46942 0.576518 2.8059 0.752154 2.16748C0.858093 1.78554 0.986335 1.41197 1.29579 1.13597C1.62197 0.84324 2.00391 0.667604 2.43882 0.648089C3.63203 0.589544 4.82245 0.517059 6.01566 0.505908C7.62147 0.48918 9.23007 0.511483 10.8359 0.54215C11.5301 0.556089 12.2298 0.592332 12.9184 0.681544C13.5485 0.76518 14.0196 1.11645 14.2705 1.72978C14.4629 2.20093 14.5354 2.69439 14.5772 3.1962C14.6859 4.45353 14.6887 5.71086 14.6274 6.96819C14.5967 7.60662 14.5661 8.24783 14.3848 8.86952C14.1785 9.58322 13.7408 10.0544 13.0104 10.2161C12.7261 10.2774 12.4305 10.2997 12.1406 10.3109C10.624 10.3638 9.11019 10.4112 7.67444 10.4558ZM6.13275 7.28601C7.40402 6.62807 8.66135 5.97571 9.94377 5.30941C8.66413 4.64032 7.4068 3.98517 6.13275 3.31887C6.13275 4.64869 6.13275 5.9562 6.13275 7.28601Z" fill="#F6F6F5"/>
</svg>
